<svg width="742" height="742" viewBox="0 0 742 742" fill="none" xmlns="http://www.w3.org/2000/svg">
<path d="M439.801 70.3872C442.428 68.4507 446.312 67.4522 449.316 66.157C469.174 57.5942 486.47 54.4871 507.973 55.3603C511.654 55.5099 521.295 57.4787 524.175 56.4436C524.291 56.4012 524.407 56.3537 524.523 56.3088C524.483 56.2849 526.139 57.2616 525.787 57.1975C530.841 58.1239 550.366 63.5976 554.326 63.1824C567.626 67.7605 578.771 68.9145 592.741 69.0916C600.161 69.1858 609.704 71.1839 616.621 73.8356C621.164 75.5772 640.496 82.9744 635.656 90.2357C633.529 90.1803 626.135 91.552 623.533 92.0472C610.346 94.5573 591.745 97.2981 579.426 102.006C573.086 104.61 568.514 106.448 562.51 109.802C554.453 114.31 547.015 119.838 540.374 126.249C530.552 135.753 521.885 147.376 513.842 158.398C508.846 165.995 501.937 172.951 497.531 180.858C491.169 192.271 483.264 202.042 479.985 214.849C478.112 222.167 477.662 232.125 474.322 238.583C467.674 251.448 456.783 262.101 452.196 276.257C444.921 297.178 442.421 321.33 432.229 341.176C417.444 369.968 394.416 392.898 384.065 424.346C375.978 448.914 374.594 473.819 368.496 498.785C358.662 539.055 332.234 566.829 295.614 584.735C277.68 593.6 257.713 602.23 243.098 616.273C233.23 625.751 224.636 635.262 220.781 648.92C212.057 653.841 204.431 660.192 195.938 665.043C168.76 680.564 138.249 698.726 106.411 684.647C101.795 682.608 82.5513 674.097 85.4435 666.467C86.9982 662.362 100.787 659.21 104.775 658.188C150.215 646.616 197.279 623.403 223.133 582.684C230.127 571.217 234.867 558.116 239.071 545.439C253.559 501.76 258.738 455.613 272.826 411.89C280.641 387.634 289.886 363.182 302.212 340.839C309.573 340.552 317.383 341.337 324.705 342.305C339.835 344.306 357.703 349.427 372.648 345.108C389.34 340.285 401.618 321.563 409.571 306.981C346.763 277.281 259.958 288.185 200.853 322.444C195.451 325.575 190.183 330.918 185.835 335.413C181.514 335.504 176.742 335.668 172.626 334.114C170.695 333.384 168.914 332.162 168.124 330.181C167.373 328.299 167.699 326.33 168.595 324.561C176.694 308.564 223.724 291.263 240.984 285.272C237.625 283.162 231.745 280.374 228.122 278.673C209.181 269.778 189.206 263.276 168.658 259.317C163.509 258.306 146.59 256.258 143.92 253.277C142.401 249.078 145.732 246.138 149.04 244.166C166.714 233.643 188.571 230.135 208.893 229.635C237.529 228.932 265.501 230.277 293.092 238.74C310.577 244.103 327.935 250.081 345.412 255.447C362.96 235.37 376.92 212.419 386.677 187.601C397.611 159.348 403.553 129.43 416.708 102.041C422.61 89.7593 430.356 80.0205 439.801 70.3872Z" fill="#141414"/>
<path d="M579.427 102.006C576.778 101.317 573.191 101.444 570.427 101.178C564.706 100.627 549.982 99.1294 546.961 93.5133C546.729 88.3682 560.931 81.1279 565.34 79.9592C587.894 73.9797 615.24 80.1106 635.656 90.2356C633.53 90.1801 626.135 91.5518 623.534 92.0471C610.346 94.5571 591.745 97.298 579.427 102.006Z" fill="#D2673B"/>
<path d="M512.23 67.3279C518.693 66.1801 524.871 70.4749 526.041 76.9341C527.215 83.3932 522.94 89.5843 516.487 90.7806C509.998 91.9831 503.766 87.6836 502.589 81.1904C501.411 74.6968 505.734 68.4822 512.23 67.3279Z" fill="#FCF5F3"/>
<path d="M513.252 71.8501C517.252 71.3128 520.94 74.0956 521.523 78.0908C522.107 82.0855 519.364 85.805 515.375 86.4321C512.755 86.844 510.118 85.8158 508.466 83.7402C506.814 81.6649 506.404 78.8621 507.397 76.4013C508.386 73.9409 510.621 72.2026 513.252 71.8501Z" fill="#141414"/>
<path d="M477.163 517.911C478.753 519.215 477.942 523.436 477.858 525.353C476.159 563.373 432.646 617.646 445.834 654.663C434.744 650.87 421.625 642.674 412.158 635.787C406.158 631.218 399.55 628.371 392.988 624.885C392.235 624.483 390.996 623.61 390.688 622.744C391.996 620.125 404.227 612.034 407.372 609.788C417.538 602.469 426.925 594.122 435.378 584.88C447.888 571.192 460.051 552.25 468.609 535.914C471.63 530.143 474.268 523.806 477.163 517.911Z" fill="#141414"/>
<path d="M534.374 637.116C538.599 636.906 542.685 636.993 546.874 637.794C550.493 638.482 573.735 645.033 572.365 649.398C567.916 652.645 552.442 649.507 550.544 652.3C551.685 655.63 560.833 657.547 560.801 661.452C559.062 663.434 545.808 663.959 542.374 664.064C522.458 664.691 505.727 678.017 486.927 681.607C485.492 681.647 483.289 681.705 481.963 681.274C469.319 677.162 457.707 661.851 446.772 654.967C461.475 651.866 463.703 649.105 475.058 639.055C479.601 643.25 484.583 650.217 491.455 649.406C506.654 647.612 518.737 638.631 534.374 637.116Z" fill="#D2673B"/>
<path d="M459.812 46.9892C457.283 46.0881 453.914 45.4168 451.214 44.657C446.671 43.3843 442.255 41.6876 438.026 39.5891C428.023 34.6914 417.698 26.1691 412.788 15.5675C412.451 14.8422 412.556 14.6971 412.882 14.0852C413.879 13.9947 427.038 22.4702 429.722 23.9261C435.719 27.1936 441.965 29.9811 448.403 32.2623C458.113 35.6426 468.188 37.8685 478.42 38.8946C483.738 39.4018 489.293 39.4975 494.673 39.9902C518.831 42.2024 534.831 49.5297 554.326 63.1824C550.366 63.5976 530.842 58.1239 525.787 57.1975C526.139 57.2616 524.483 56.2848 524.523 56.3088C524.407 56.3537 524.291 56.4011 524.175 56.4435C521.295 57.4786 511.654 55.5099 507.973 55.3602C486.47 54.4871 469.174 57.5942 449.316 66.1569C446.312 67.4522 442.428 68.4507 439.802 70.3872C437.577 70.2865 431.396 72.1723 428.744 72.6288C419.484 74.2229 409.694 74.7714 400.379 73.4613C397.274 73.0251 387.003 71.44 385.384 69.3307C386.249 68.3648 395.981 67.9445 397.963 67.7598C411.053 66.537 425.382 63.3741 437.407 57.9583L437.128 57.9449C421.705 57.1142 403.01 52.5578 390.941 41.5514C390.264 40.9354 390.34 40.8036 390.405 40.0043C392.409 39.2728 399.644 41.684 402.042 42.3147C406.734 43.5951 411.502 44.5857 416.313 45.2798C432.501 47.6084 443.53 47.5964 459.812 46.9892Z" fill="#D89940"/>
<path d="M219.939 650.946C220.501 651.482 222.131 653.819 222.896 654.721C227.282 659.877 232.335 663.376 238.94 665.036C241.922 665.786 245.499 665.673 248.49 666.655C250.974 671.757 243.927 677.09 245.216 682.151C246.515 686.136 253.016 687.828 256.509 688.995C263.419 691.307 269.921 693.419 276.057 697.458C279.275 699.578 291.963 707.125 288.817 712.215C285.988 713.505 276.978 711.418 272.761 712.056C272.682 712.233 272.603 712.407 272.523 712.581C274.63 716.936 276.055 719.436 276.174 724.331C266.532 724.425 257.851 716.041 247.485 712.733C248.019 715.469 249.12 717.979 246.601 719.827C242.55 720.276 232.734 710.262 227.872 707.94C221.068 704.686 203.514 704.255 206 693.77C207.888 685.81 212.071 676.941 214.453 668.978C216.284 663.322 217.619 656.047 219.939 650.946Z" fill="#D2673B"/>
</svg>
