<svg width="85" height="85" viewBox="0 0 85 85" fill="none" xmlns="http://www.w3.org/2000/svg">
<path d="M42.2547 12.7718C44.3067 12.7841 43.7483 16.69 43.6967 18.0755C43.6431 19.5608 43.6015 21.0465 43.5719 22.5324C44.7852 20.8851 45.967 19.3847 47.4411 17.9719C48.5164 16.6617 50.5711 18.0447 49.4761 19.3094C47.6404 21.4295 45.6065 23.0181 44.4257 25.7195C44.1084 26.4455 43.8888 27.2103 43.7723 27.994C43.5997 29.1382 43.4816 33.9204 43.8783 34.9343C44.6352 35.6348 46.1373 36.5898 47.146 36.0458C51.3463 33.7809 54.7805 31.5161 56.0822 26.6028C56.4368 25.6624 56.9077 22.7985 57.9929 22.5391C61.2819 21.753 57.7165 29.0622 57.2691 29.9796C59.7865 28.517 62.0221 26.632 64.6325 25.3405C66.6964 24.3193 67.4462 26.3967 65.735 27.5033C63.3759 29.029 60.8021 30.5299 58.3273 31.8753C59.7094 31.8932 65.3218 31.8305 65.5744 33.5567C65.8656 35.5467 62.3483 34.6216 61.2986 34.4766C59.5859 34.2401 57.8657 34.1268 56.1088 34.3597C55.4129 34.448 54.73 34.619 54.0746 34.869C52.612 35.4211 48.97 37.3187 47.8132 38.5008C47.4098 38.9131 47.5788 40.7023 47.6635 41.3406L47.7147 41.3928C48.509 42.2188 50.1563 42.8943 51.15 43.5223C54.1995 45.4496 57.3145 45.9796 60.8656 45.4063C62.0154 45.2207 63.5148 44.9146 64.671 45.0185C65.6157 45.0852 65.8861 46.4724 65.2014 46.9114C63.7608 47.8352 59.9748 47.9718 58.3689 47.9568C59.7031 48.746 61.0478 49.5174 62.4026 50.2707C63.5995 50.9393 64.7009 51.5123 65.8098 52.3448C67.5343 53.6395 66.6507 55.3549 64.7035 54.5217C63.4381 53.9802 62.1741 53.0533 61.0193 52.28C59.7931 51.4466 58.5468 50.643 57.2817 49.8699C58.0691 51.4497 59.278 54.3552 59.5057 56.1683C59.6495 57.314 57.7431 57.996 57.217 56.6108C56.12 53.7223 55.6998 50.9697 53.6402 48.4455C53.2169 47.9251 52.741 47.4498 52.2201 47.0271C51.2196 46.2091 47.8841 43.9738 46.5856 43.681C45.9194 43.5309 44.4466 44.5309 43.896 45.0025C43.7965 45.2237 43.726 45.4569 43.6863 45.6962C43.5337 46.6707 43.6392 47.7642 43.6482 48.7497C43.6844 52.7218 44.0479 54.7627 46.6447 57.9046C47.4186 58.8409 48.8084 60.0622 49.4099 60.9296C49.6543 61.282 49.79 61.7552 49.7049 62.1821C49.6484 62.4658 49.4899 62.7113 49.2442 62.8672C48.9636 63.0452 48.6083 63.0865 48.2874 63.0129C47.1485 62.7518 44.2698 58.8149 43.5759 57.7282C43.5798 59.1981 43.616 60.6678 43.6849 62.1362C43.7456 63.6396 44.1647 66.5779 42.8797 67.5552C42.5266 67.5996 41.9863 67.5513 41.7752 67.2621C40.9156 66.0848 41.2526 63.3043 41.3056 61.9975C41.3539 60.5754 41.394 59.1531 41.4257 57.7306C40.6472 58.9602 38.4369 61.887 37.1455 62.7787C35.8565 63.6688 34.5065 62.2857 35.7036 60.8358C36.1332 60.3153 36.7144 59.7331 37.2091 59.2042C37.6836 58.7011 38.1395 58.1809 38.576 57.6446C39.3221 56.7241 40.0515 55.6404 40.5187 54.5483C40.8499 53.764 41.0797 52.9406 41.2025 52.0981C41.3694 51.0209 41.5986 46.2456 41.2381 45.3878C40.9212 44.6338 39.8242 44.0241 39.0885 43.7346C38.6953 43.5798 38.2971 43.5842 37.911 43.7596C37.0842 44.1353 36.2657 44.7141 35.4917 45.1934C32.3968 47.11 30.5978 48.7486 29.2622 52.2246C28.7758 53.4907 28.5385 54.8471 28.038 56.0955C27.8309 56.6121 27.506 57.1694 26.964 57.3915C26.7485 57.4798 26.5321 57.4908 26.3175 57.3916C25.9996 57.2448 25.7812 56.9085 25.6786 56.5846C25.243 55.2098 27.0446 51.196 27.7151 49.8632L23.5374 52.5919C22.9268 52.9907 17.9706 56.6378 18.3234 53.4437C18.4347 52.4361 21.7014 50.7692 22.7492 50.1842C24.0943 49.4347 25.432 48.6723 26.7623 47.8969C26.6463 47.9068 26.5303 47.9151 26.4141 47.9219C25.2301 47.9908 20.6852 47.7286 19.8258 46.933C19.5753 46.7048 19.4286 46.3845 19.4194 46.0458C19.4112 45.7805 19.5133 45.5236 19.7014 45.3365C20.506 44.5402 23.2172 45.358 24.2934 45.4624C26.349 45.7066 29.2334 45.7211 31.175 44.8553C32.603 44.2184 36.3293 42.4 37.4004 41.3283C37.4927 40.3902 37.4924 39.4454 37.3994 38.5074C36.2199 37.2963 31.273 34.8123 29.5077 34.469C27.5916 34.0963 24.9535 34.2413 23.0003 34.5889C22.0782 34.7529 19.7545 35.2732 19.4336 33.9431C19.1498 32.4735 21.2274 32.3122 22.1941 32.1806C23.685 31.9778 25.1809 31.9256 26.6706 31.8616C24.6303 30.7248 22.5751 29.5779 20.5697 28.3814C19.7676 27.9029 18.566 27.2199 18.3379 26.2394C18.2797 25.9893 18.3089 25.7308 18.4484 25.512C18.5957 25.2809 18.8214 25.137 19.0893 25.087C20.4974 24.8237 26.2363 29.0212 27.6964 29.999C27.2623 29.0263 23.4788 20.911 27.4596 22.7827C28.0144 23.0436 28.9633 26.8036 29.3101 27.6773C29.6407 28.5099 30.166 29.7068 30.8059 30.6575C31.2847 31.3592 31.8527 31.9957 32.4954 32.551C33.4422 33.3768 36.9893 35.7455 38.2731 36.1809C39.0588 36.3789 40.2095 35.6566 40.799 35.2369C41.7376 34.5687 41.3133 32.2059 41.3714 31.1728C41.5488 27.5604 40.6947 25.0788 38.3182 22.346C37.5132 21.4201 35.1232 19.4429 35.3087 18.369C35.3548 18.1009 35.5111 17.8644 35.7396 17.7169C37.3933 16.629 40.6209 21.368 41.4251 22.5713C41.4136 19.9473 41.1462 17.182 41.2658 14.5581C41.299 13.8298 41.5994 13.1491 42.2547 12.7718Z" fill="#FCF5F3"/>
<path d="M27.3258 36.8055C29.465 36.5929 32.4806 37.6953 34.2475 38.7622C36.4616 40.0993 34.3526 41.1288 33.0622 41.6898C30.8345 42.6582 29.0405 43.1825 26.6432 42.9843C25.7868 42.8216 25.1891 42.5767 24.3981 42.2281C27.0263 42.4287 29.4143 42.1397 31.1268 39.9161C29.6145 37.6669 26.8828 37.4906 24.4474 37.4325C25.5899 37.0676 26.1403 36.9152 27.3258 36.8055Z" fill="#FCF5F3"/>
<path d="M57.0873 36.8092C58.344 36.7296 59.4764 37.0909 60.6687 37.4316C58.0553 37.453 55.5627 37.614 53.9015 39.9092C55.5839 42.2272 57.9942 42.4004 60.6205 42.2335C60.1044 42.4833 59.7489 42.6014 59.2052 42.7838C56.6088 43.6124 53.359 42.4091 51.0462 41.2605C50.0891 40.8716 49.3027 39.801 50.4192 39.0455C52.4741 37.6552 54.6354 36.9626 57.0873 36.8092Z" fill="#FCF5F3"/>
<path d="M46.2246 45.8968C46.9095 45.9018 47.6498 46.3286 48.2257 46.7033C50.0155 47.8678 51.8278 49.5311 52.6675 51.5389C52.9881 52.3056 53.2122 53.4535 53.393 54.2811C53.0793 53.7876 52.8103 53.1809 52.4854 52.6714C51.4855 51.1035 50.3564 50.2648 48.6681 49.5873C48.4366 49.5103 48.3957 49.4898 48.1576 49.5293C47.0954 50.3225 47.7856 53.9254 48.3538 54.9468C48.623 55.4306 49.0783 56.0832 49.4045 56.5519C48.7095 56.0162 47.7224 55.1553 47.218 54.3469C45.9388 52.2967 45.3647 49.083 45.6707 46.6945C45.7268 46.2572 45.8965 46.1105 46.2246 45.8968Z" fill="#FCF5F3"/>
<path d="M38.4065 45.9057C38.6923 45.9091 39.0408 45.9275 39.1842 46.2116C39.6679 47.1696 39.4027 49.0968 39.2456 50.078C38.768 53.0594 37.9095 54.7897 35.4782 56.5732C35.8132 56.1587 36.2892 55.5733 36.5636 55.1209C37.1848 54.0968 38.0162 50.1597 36.7599 49.4864C36.5463 49.5517 36.3339 49.6212 36.1231 49.695C33.7201 50.5489 32.6481 52.2378 31.6272 54.3899C31.9487 51.4922 33.2976 49.3227 35.6024 47.5611C36.4206 46.9357 37.4162 46.2178 38.4065 45.9057Z" fill="#FCF5F3"/>
<path d="M49.126 23.8344C49.1247 23.8721 48.5709 24.921 48.4842 25.0136C47.7589 25.7874 46.7614 31.0323 48.8984 30.2368C51.1734 29.3898 52.3294 27.741 53.3268 25.5686C53.0481 27.478 52.7936 28.414 51.7026 30.0046C51.0674 30.8235 50.4646 31.4222 49.6556 32.0815C45.8087 35.2171 45.106 34.4736 45.7844 29.6909C46.1266 27.2776 47.0491 25.3376 49.126 23.8344Z" fill="#FCF5F3"/>
<path d="M35.6362 23.7285C35.9956 23.888 36.5537 24.3924 36.8454 24.6876C38.9011 26.7682 39.4331 29.8264 39.456 32.6377C39.4681 34.1248 38.5983 34.3111 37.4835 33.5921C37.095 33.3416 36.7185 33.0912 36.3391 32.8264C35.2166 32.0433 34.2375 31.1637 33.3857 30.0927C32.2631 28.6565 31.9549 27.4326 31.7327 25.6727C32.6007 27.7103 33.6966 29.2017 35.7921 30.1367C36.3865 30.4019 37.195 30.4118 37.331 29.6096C37.5575 28.2745 37.1815 26.7252 36.6792 25.4872C36.4403 24.9338 35.9489 24.249 35.6362 23.7285Z" fill="#FCF5F3"/>
</svg>
