<svg width="80" height="80" viewBox="0 0 80 80" fill="none" xmlns="http://www.w3.org/2000/svg">
<path d="M39.4449 23.3748C47.6146 22.929 54.5926 29.2037 55.014 37.3747C55.4354 45.5456 49.1399 52.5049 40.9678 52.9019C32.83 53.2973 25.9064 47.034 25.4868 38.8975C25.0671 30.7609 31.3097 23.8187 39.4449 23.3748Z" fill="#FCF5F3"/>
<path d="M10.2647 38.1695C11.8461 36.1093 13.5451 34.9035 16.1425 34.4963C18.8259 34.0758 21.9615 35.7669 24.3298 34.4608C22.2692 37.0133 20.0015 36.7263 17.121 36.2028C19.7161 37.7272 22.1002 39.8698 24.3179 41.9503C24.496 42.1174 24.7137 42.6419 24.8244 42.8883C17.9533 44.1465 16.7643 37.4844 11.0979 38.4819L10.9994 38.4999C10.4875 38.6064 10.1711 38.7627 9.70173 38.9755L10.2647 38.1695Z" fill="#FCF5F3"/>
<path d="M9.70173 38.9755L10.2647 38.1695C10.4868 38.324 10.7169 38.4986 10.9994 38.4999C10.4875 38.6064 10.1711 38.7627 9.70173 38.9755Z" fill="#FCF5F3"/>
<path d="M57.2343 34.0153C63.8726 33.7615 64.8296 40.9512 70.7087 38.1612C68.608 41.1366 66.6021 42.5742 62.8984 42.6055C60.3795 42.5406 58.2699 41.6191 55.8991 42.4928C56.0682 42.3314 56.2427 42.1757 56.4223 42.026C58.5669 40.2227 60.2983 40.4633 62.8984 40.6916C61.1692 39.4058 59.7299 38.0482 58.252 36.4895C57.714 35.9222 56.2956 35.0039 55.9801 34.404C56.1443 34.173 56.9297 34.0693 57.2343 34.0153Z" fill="#FCF5F3"/>
<path d="M26.239 46.9241L26.2781 46.9673C26.2959 47.2581 26.1544 48.1064 26.1028 48.4273C25.7581 50.5733 24.1872 51.9091 22.4804 53.097C25.5567 52.476 28.4631 52.6779 31.6265 51.8914L32.2527 52.2035C32.0767 52.5579 31.8662 52.8941 31.6243 53.2073C30.1505 55.1239 28.1696 55.817 25.8464 56.1207C24.537 56.1532 22.9103 56.2783 21.6714 56.6397C19.984 57.132 19.1575 57.9614 18.3517 59.4439C18.1196 55.8793 18.6213 53.3815 21.7138 51.1677C24.1079 49.4539 24.6885 49.4271 26.239 46.9241Z" fill="#FCF5F3"/>
<path d="M44.4996 53.7344C44.7364 53.7208 44.9262 53.6795 45.1229 53.7937C45.2765 54.0952 45.1711 54.8103 45.1648 55.1613C45.0688 60.48 37.1153 62.6179 40.3583 68.252C38.1259 66.4805 36.4855 65.1685 36.1339 62.1433C36.1158 61.4429 36.1077 60.4747 36.2039 59.7896C36.5505 57.3217 37.0535 56.1488 36.1467 53.7531C38.7282 55.725 38.5964 57.8681 38.0648 60.7821C39.4013 58.3277 41.6379 56.5141 43.6096 54.589C43.9138 54.2919 44.1601 53.9981 44.4996 53.7344Z" fill="#FCF5F3"/>
<path d="M54.2447 46.1565C54.5961 46.2282 55.374 46.8817 55.6619 47.1266C57.1444 48.3874 57.992 50.509 58.2494 52.3767C58.6674 55.4089 59.0731 58.1765 62.4825 59.1199C59.3345 59.6027 57.0945 59.5627 54.6255 57.3835C53.3135 56.1661 52.3314 54.6995 50.9429 53.5844C50.3603 53.1165 49.6507 52.7529 48.9913 52.3983C49.5515 52.3909 50.3227 52.3631 50.863 52.4262C52.9645 52.6719 54.3294 54.0664 55.5541 55.6545C55.4889 55.4873 55.4305 55.3175 55.3792 55.1454C54.7355 52.987 53.6963 49.1809 53.9256 46.9222C53.9479 46.7029 54.1369 46.3557 54.2447 46.1565Z" fill="#FCF5F3"/>
<path d="M19.9179 17.8947C26.3685 17.4715 26.6739 22.8613 31.4415 24.6761C28.5077 24.9661 26.6305 24.1972 24.9221 21.7453C25.0933 22.634 25.2475 23.4424 25.4759 24.3191C25.9654 26.1793 26.1683 27.5125 26.5177 29.3846C26.2964 29.9131 26.1768 30.2747 26.0108 30.8249C23.3973 29.6185 22.148 27.2688 21.8298 24.4965C21.6003 22.4967 21.5846 20.2773 19.8572 18.8749C19.4997 18.5847 18.7007 18.3883 18.409 18.0822C18.5749 17.9711 19.6347 17.9189 19.9179 17.8947Z" fill="#FCF5F3"/>
<path d="M61.9654 18.0331C62.1729 18.2144 62.1201 18.7945 62.1394 19.0503C62.3699 22.1039 61.2521 24.5993 58.6437 26.2937C56.9567 27.3896 55.4026 28.3505 54.3923 30.233C54.3705 28.1261 54.8742 26.8391 56.4973 25.3919C56.8795 25.0511 57.4606 24.7299 57.7853 24.364L57.7787 24.2747L57.5181 24.2873C55.2471 24.6051 53.5639 24.7429 51.2604 24.5391C50.6909 24.4888 49.647 24.6553 48.9972 24.6739L48.4313 24.2933C49.2003 23.197 50.1223 22.4577 51.3339 21.8915C55.1792 20.0943 59.5345 22.5175 61.9654 18.0331Z" fill="#FCF5F3"/>
<path d="M39.4576 9.303C40.1333 9.55773 41.3885 10.7357 41.8822 11.2581C43.1338 12.5511 43.8821 14.6805 43.7046 16.4823C43.4637 18.9279 43.3289 20.2605 44.0707 22.6468C43.5699 22.3196 43.1244 21.9147 42.751 21.4474C41.5617 19.9439 41.476 18.241 41.7007 16.4237C41.4247 17.003 40.9732 17.6453 40.6104 18.1901C40.5601 18.2625 40.5088 18.3342 40.4565 18.4052C39.3861 19.8529 36.9433 22.7129 35.1335 22.9918C34.968 19.769 36.1813 18.0294 38.2442 15.6573C40.047 13.5845 40.7576 11.9405 39.4576 9.303Z" fill="#FCF5F3"/>
</svg>
