<svg width="80" height="80" viewBox="0 0 80 80" fill="none" xmlns="http://www.w3.org/2000/svg">
<path d="M62.8517 27.958C62.9451 27.949 63.0387 27.9414 63.1323 27.9351C65.0443 27.795 66.932 28.4299 68.3707 29.6969C69.858 31.0132 70.752 32.8735 70.8507 34.8573C70.9753 37.0461 70.4713 39.2132 68.9147 40.8175C61.368 48.5919 44.7732 41.6773 35.7821 39.5899C31.9171 38.6228 28.033 37.8821 24.0357 37.6607C19.5935 37.4145 14.7365 38.1845 10.5222 39.6123C10.1457 39.7399 9.7042 40.0823 9.30807 40.1035L9.33273 40.0374C13.7564 37.2659 18.3199 35.9625 23.5241 35.6523C24.4427 35.5773 25.4889 35.5949 26.4123 35.5958C34.9743 35.6035 42.9299 38.4727 51.1049 40.5726C55.695 41.6726 61.0925 42.7143 65.4223 40.2807C68.2453 38.6941 69.5873 35.1582 67.8027 32.3088C67.062 31.1029 65.8624 30.2503 64.48 29.9473C61.6137 29.3292 57.9453 32.0145 59.7102 35.0133C60.84 36.933 64.0012 36.597 64.4643 33.9909C65.3359 37.4149 61.4487 39.4639 58.7653 37.4605C57.8523 36.7819 57.2507 35.7645 57.0959 34.6375C56.8887 33.1515 57.2897 31.6445 58.2081 30.458C59.3517 28.9522 61.0207 28.2111 62.8517 27.958Z" fill="#FCF5F3"/>
<path d="M48.0306 18.9607C51.3358 18.6749 54.7087 21.2003 55.3209 24.4833C55.6903 26.3871 55.2776 28.3595 54.1759 29.9555C49.4985 36.7699 36.8367 34.5281 29.8121 34.0533C26.2535 33.8129 22.6164 33.9413 19.0912 34.4655C17.8769 34.646 16.7176 34.9776 15.5195 35.1974C20.1173 32.9231 25.7524 32.4642 30.8217 32.4186C33.4693 32.4435 36.1043 32.5386 38.7557 32.5453C42.9785 32.5558 49.2875 32.219 52.0627 28.5088C52.8813 27.4353 53.2218 26.0722 53.0042 24.7399C52.6115 22.2144 49.9871 20.5212 47.5202 20.8872C45.5717 21.1763 43.6099 22.8549 44.0209 24.9803C44.1641 25.6903 44.5825 26.3148 45.1845 26.7175C46.7127 27.7269 48.1255 26.7213 48.9707 25.4005C48.7552 27.3965 48.1227 28.6517 45.9414 28.9418C43.8039 29.2571 41.8249 27.3207 41.7383 25.2249C41.5791 21.3695 44.6067 19.2546 48.0306 18.9607Z" fill="#FCF5F3"/>
<path d="M21.6957 41.2945C22.7515 41.1611 26.4698 41.5338 27.5471 41.7441C31.9623 42.6057 36.5897 44.3274 40.2985 46.9098C42.3972 48.3711 44.8116 50.8229 45.2593 53.4645C45.5083 55.0927 45.3343 56.5765 44.3429 57.9435C43.4216 59.2125 42.0303 60.0595 40.4799 60.2953C38.9571 60.5313 37.4034 60.1427 36.1709 59.2175C34.5691 58.0108 33.5348 55.9365 34.0459 53.9276C34.3881 52.624 35.4387 51.6594 36.7959 51.5413C37.9948 51.4369 38.5647 51.6954 39.4533 52.4241C38.7881 52.3295 38.6264 52.3395 37.9729 52.4065C35.6005 52.9677 35.3054 56.1269 37.2487 57.522C37.9501 58.0201 38.8193 58.2221 39.6684 58.0843C40.6093 57.9277 41.4499 57.4047 42.0061 56.6299C44.1677 53.5883 40.7659 49.7188 38.2888 48.0989C32.5301 44.3333 25.2404 42.2871 18.3652 42.5501C17.2099 42.5943 15.9437 42.8518 14.7976 42.9997C14.2839 43.0763 13.5696 43.316 12.9783 43.4205C15.7115 41.9157 18.6751 41.5561 21.6957 41.2945Z" fill="#FCF5F3"/>
<path d="M27.2343 39.6686C31.2433 40.0249 34.1721 40.7981 37.9968 41.9111C45.8945 44.2095 56.1342 49.4497 64.2947 45.9559C56.6553 52.3635 44.9052 45.9701 37.0674 43.0711C33.4518 41.7337 30.5945 40.7818 26.7899 39.8763C26.9211 39.7793 27.0807 39.7291 27.2343 39.6686Z" fill="#FCF5F3"/>
<path d="M36.8557 24.6338L36.9555 24.6978C37.2177 28.9687 32.1605 30.6982 28.7345 31.0868C27.7758 31.1955 26.8765 31.1827 25.9167 31.1305L25.7426 31.0971C25.8107 31.0472 27.0149 30.8846 27.2189 30.8433C27.759 30.7333 28.2922 30.5919 28.8158 30.4199C31.9011 29.4022 35.34 27.6507 36.8557 24.6338Z" fill="#FCF5F3"/>
<path d="M22.6561 44.3623C25.5566 44.1595 29.054 45.8599 30.5604 48.376C31.0954 49.2695 31.3647 50.3013 31.0969 51.3254C30.9179 51.4144 31.0103 51.3948 30.8089 51.3837C30.2867 51.0387 29.6639 49.6087 29.306 49.0005C27.8306 46.4935 25.3591 45.1205 22.6561 44.3623Z" fill="#FCF5F3"/>
<path d="M26.7899 39.8763C26.2659 39.801 25.9543 39.7425 25.4421 39.6095C25.6151 39.4761 26.9769 39.641 27.2343 39.6686C27.0807 39.7291 26.9211 39.7793 26.7899 39.8763Z" fill="#FCF5F3"/>
</svg>
